<?xml version="1.0" encoding="UTF-8"?>
<svg id="Layer_2" xmlns="http://www.w3.org/2000/svg" version="1.1" viewBox="0 0 168.9 89.8">
  <!-- Generator: Adobe Illustrator 29.4.0, SVG Export Plug-In . SVG Version: 2.1.0 Build 152)  -->
  <defs>
    <style>
      .st0 {
        fill: #fff;
      }
    </style>
  </defs>
  <g id="Layer_1-2">
    <path class="st0" d="M112.2.1l-2.6,13.9h16.4L128.5.1h-16.4,0ZM99.8,65h16.4l8.6-45h-16.4l-8.6,45Z"/>
    <path class="st0" d="M87.2,14h16.3L106.1.1h-17.2c-15.1,0-27.3,8-27.3,21.8s7,13,13.2,16.4c5.6,2.9,8.5,4.6,8.5,7.8s-4.3,5.1-8.8,5.1c-6.1,0-13,0-13,0L55.9,0h-19.8C16.6,18.1,2.8,47.4,0,77.4h16.4c1-9.6,3-18.8,6.1-27.6h23.5l1.5,15.2h26.9c14.3,0,26.4-5.9,26.4-21.7s-4.7-12.2-12.6-16.3c-4.9-2.8-9.2-4.8-9.2-7.9s2.4-5.1,8.3-5.1M27.4,37.4c4-8.6,8.9-16.8,14.7-24.2l2.5,24.3h-17.2Z"/>
    <path class="st0" d="M132.2,42.8l-2.4,12.6c-.2.7-.3,1.6-.3,2.6,0,1.3.9,2.7,2.9,2.7s3.6-1.5,4.4-5.2l2.4-12.7h5.6l-2.3,12.3c-1.3,6.8-4.1,10.3-10.7,10.3s-7.8-2.5-7.8-7.3.1-2.1.3-3.1l2.3-12.2h5.6Z"/>
    <path class="st0" d="M148.9,42.8h5.5l-1.8,9.6h.1c.6-1,1.3-1.8,1.9-2.6l5.4-7h7l-8.9,9.6,4.9,12.6h-6.1l-3.2-9.1-2.2,2.2-1.4,7h-5.5l4.2-22.2h0Z"/>
    <path class="st0" d="M23.8,75.4l-.8,1.9h-2.2l3.8-8.1h2.7l.9,8.1h-2.2v-1.9h-2.2ZM25.8,73.8v-1.5c-.1-.5-.1-1.1-.2-1.6h0c-.2.5-.4,1.2-.6,1.6l-.6,1.5h1.5,0Z"/>
    <path class="st0" d="M31.4,69.3c.7-.1,1.5-.2,2.3-.2,1.2,0,2.2.2,2.9.8.7.6,1.2,1.4,1.2,2.7s-.7,2.9-1.7,3.7c-1,.7-2.1,1.1-4,1.1s-2,0-2.3-.2c0,0,1.5-7.8,1.5-7.8ZM32.3,75.7c.1,0,.3,0,.6,0,.8,0,1.6-.3,2-.9.5-.6.7-1.3.7-2.2s-.7-1.8-1.9-1.8-.4,0-.6,0c0,0-.9,4.8-.9,4.8Z"/>
    <path class="st0" d="M40.9,77.3l-1-8.1h2.1l.3,3.3c0,.9.1,1.8.2,2.8h0c.3-.9.8-1.9,1.2-2.7l1.5-3.3h2.3l-4.1,8.1h-2.4,0Z"/>
    <polygon class="st0" points="53.3 74 50.4 74 50.1 75.5 53.3 75.5 53 77.3 47.8 77.3 49.3 69.2 54.4 69.2 54 70.9 51 70.9 50.7 72.3 53.6 72.3 53.3 74"/>
    <path class="st0" d="M55.2,77.3l1.5-8.1h2.4l.7,2.4c.3,1.1.5,2,.7,3h0c0-.9.2-1.8.4-3.1l.4-2.4h1.9l-1.5,8.1h-2.2l-.8-2.6c-.3-1.1-.6-1.9-.8-3h0c0,.8-.3,2.1-.6,3.4l-.4,2.2h-1.9,0Z"/>
    <polygon class="st0" points="67 71 65 71 65.3 69.2 71.4 69.2 71.1 71 69 71 67.8 77.3 65.8 77.3 67 71"/>
    <polygon class="st0" points="75.4 69.2 73.9 77.3 71.8 77.3 73.4 69.2 75.4 69.2"/>
    <path class="st0" d="M76.8,75.1c.5.3,1.2.5,2,.5.6,0,1.1-.2,1.1-.7s-.4-.6-1.1-1c-.8-.4-1.7-1-1.7-2.2,0-1.7,1.5-2.7,3.4-2.7s1.6.2,2,.4l-.6,1.7c-.3-.1-.9-.4-1.6-.3-.7,0-1.1.3-1.1.6s.5.6,1.2,1c1,.5,1.6,1.2,1.6,2.1,0,2-1.7,2.8-3.4,2.8-1.3,0-2.1-.3-2.5-.6l.7-1.7h0Z"/>
    <polygon class="st0" points="86.3 71 84.3 71 84.6 69.2 90.8 69.2 90.4 71 88.4 71 87.2 77.3 85.1 77.3 86.3 71"/>
    <polygon class="st0" points="94.7 73.5 94.4 74.9 91.2 74.9 91.5 73.5 94.7 73.5"/>
    <polygon class="st0" points="98.2 69.2 100.3 69.2 99.1 75.5 102.2 75.5 101.8 77.3 96.7 77.3 98.2 69.2"/>
    <path class="st0" d="M106.5,75.4l-.8,1.9h-2.2l3.8-8.1h2.7l.9,8.1h-2.2v-1.9c0,0-2.2,0-2.2,0ZM108.5,73.8v-1.5c-.1-.5-.1-1.1-.2-1.6h0c-.2.5-.4,1.2-.6,1.6l-.6,1.5h1.5,0Z"/>
    <path class="st0" d="M113.4,77.3l.6-3.3-1.6-4.8h2.2l.4,1.8c.1.7.2,1.1.3,1.5h0c.3-.5.5-.9.8-1.5l1-1.8h2.4l-3.5,4.8-.6,3.3s-2.1,0-2,0Z"/>
    <path class="st0" d="M126.4,77.3l.5-2.9c.1-.9.3-2,.6-3.3h0c-.5,1.2-1,2.3-1.4,3.2l-1.3,2.8h-1.6l-.2-2.8c0-.9-.1-2.1-.1-3.2h0c-.2,1.2-.5,2.4-.7,3.3l-.7,2.9h-1.9l2-8.1h2.8v2.4c.1.8.2,1.8.2,2.8h0c.4-1,.8-2.1,1.2-2.8l1.1-2.4h2.8l-1.1,8.1h-2Z"/>
    <polygon class="st0" points="136.2 74 133.3 74 133 75.5 136.2 75.5 135.9 77.3 130.7 77.3 132.2 69.2 137.3 69.2 136.9 70.9 133.9 70.9 133.6 72.3 136.5 72.3 136.2 74"/>
    <path class="st0" d="M138.1,77.3l1.5-8.1h2.4l.7,2.4c.3,1.1.6,2,.7,3h0c0-.9.2-1.8.4-3.1l.4-2.4h1.9l-1.5,8.1h-2.1l-.8-2.6c-.3-1.1-.6-1.9-.8-3h0c-.1.8-.3,2.1-.6,3.4l-.4,2.2h-1.9Z"/>
    <path class="st0" d="M151.1,69c-.6,1.2-1.2,2.4-2,3.4h-1.3c.6-1.1,1-2.2,1.4-3.3h2q0-.1,0-.1Z"/>
    <path class="st0" d="M152,75.1c.5.3,1.2.5,2,.5.6,0,1.1-.2,1.1-.7s-.4-.6-1.1-1c-.8-.4-1.7-1-1.7-2.2,0-1.7,1.5-2.7,3.4-2.7s1.6.2,2,.4l-.6,1.7c-.3-.1-.9-.4-1.6-.3-.7,0-1.1.3-1.1.6s.5.6,1.1,1c1,.5,1.6,1.2,1.6,2.1,0,2-1.7,2.8-3.5,2.8-1.3,0-2.1-.3-2.5-.6l.7-1.7Z"/>
    <path class="st0" d="M21.7,87.5c.5.3,1.2.5,2,.5.6,0,1.1-.2,1.1-.7s-.4-.6-1-1c-.8-.4-1.7-1-1.7-2.2,0-1.7,1.5-2.7,3.4-2.7s1.6.2,2,.4l-.6,1.7c-.3-.1-.9-.4-1.5-.3-.7,0-1.1.3-1.1.6s.5.6,1.1,1c1,.5,1.6,1.2,1.6,2.1,0,2-1.7,2.8-3.5,2.8-1.3,0-2.1-.3-2.5-.6l.7-1.7h0Z"/>
    <polygon class="st0" points="34.1 86.4 31.2 86.4 31 87.9 34.2 87.9 33.8 89.7 28.6 89.7 30.1 81.6 35.2 81.6 34.8 83.3 31.8 83.3 31.6 84.7 34.4 84.7 34.1 86.4"/>
    <path class="st0" d="M37.5,81.8c.6-.1,1.5-.2,2.3-.2s1.6,0,2.2.4c.6.3,1,.8,1,1.7,0,1.2-.7,1.9-1.8,2.2h0c.4.3.6.8.7,1.5.1.8.2,2,.3,2.3h-2.1c0-.2-.2-.9-.2-1.9,0-.9-.4-1.2-1-1.2h-.4l-.6,3.1h-2l1.5-7.9h0ZM38.9,85.1h.6c.8,0,1.4-.5,1.4-1.2s-.5-.8-1.1-.8-.5,0-.6,0l-.4,1.9h0Z"/>
    <path class="st0" d="M45.9,89.7l-1-8.1h2.1l.3,3.3c0,.9.1,1.8.2,2.8h0c.3-.9.8-1.9,1.2-2.7l1.5-3.3h2.3l-4.1,8.1h-2.4,0Z"/>
    <polygon class="st0" points="56.3 81.6 54.8 89.7 52.8 89.7 54.3 81.6 56.3 81.6"/>
    <path class="st0" d="M63.5,89.5c-.4.2-1.1.3-2.1.3-2.2,0-3.7-1.3-3.7-3.4s.9-3.3,2.2-4.1c.8-.5,1.8-.8,2.9-.8s1.5.2,1.8.3l-.5,1.7c-.2,0-.7-.2-1.4-.2s-1.2.2-1.7.5c-.6.5-1,1.3-1,2.4s.8,1.9,2,1.9,1.1,0,1.5-.2l.2,1.7h0Z"/>
    <polygon class="st0" points="70.9 86.4 68.1 86.4 67.8 87.9 71 87.9 70.6 89.7 65.4 89.7 66.9 81.6 72 81.6 71.7 83.3 68.6 83.3 68.4 84.7 71.2 84.7 70.9 86.4"/>
    <path class="st0" d="M73.2,87.5c.5.3,1.2.5,2,.5.6,0,1.1-.2,1.1-.7s-.4-.6-1.1-1c-.8-.4-1.7-1-1.7-2.2,0-1.7,1.5-2.7,3.4-2.7s1.6.2,2,.4l-.6,1.7c-.3-.1-.9-.4-1.6-.3-.7,0-1.1.3-1.1.6s.5.6,1.2,1c1,.5,1.6,1.2,1.6,2.1,0,2-1.7,2.8-3.4,2.8-1.3,0-2.1-.3-2.5-.6l.7-1.7h0Z"/>
    <path class="st0" d="M88.4,89.7c-.1-.2-.3-.3-.4-.5-.4.3-1.1.6-2.1.6-1.5,0-2.6-.8-2.6-2.2s.9-2,1.9-2.4h0c-.2-.4-.4-.9-.4-1.4,0-1.4,1.1-2.4,2.7-2.4s2.2.7,2.2,1.9-.7,1.6-2,2.2h0c.3.4.7.9.9,1.3.5-.6.8-1.3,1.1-1.9h1.9c-.4,1.2-1,2.3-2,3.2.3.5.8,1,1.2,1.6h-2.4ZM86.5,88.3c.3,0,.6-.1.7-.2-.4-.5-.9-1.2-1.3-1.8-.3.2-.5.6-.5,1s.4,1,1.1,1h0ZM87.3,82.8c-.4,0-.7.4-.7.8s.1.6.3.9c.5-.2,1-.6,1-1.1s-.2-.6-.6-.6h0Z"/>
    <polygon class="st0" points="99.4 81.6 97.8 89.7 95.8 89.7 97.3 81.6 99.4 81.6"/>
    <path class="st0" d="M100.3,89.7l1.5-8.1h2.4l.7,2.4c.3,1.1.6,2,.7,3h0c0-.9.2-1.8.4-3.1l.4-2.4h1.9l-1.5,8.1h-2.2l-.8-2.6c-.3-1.1-.6-1.9-.8-3h0c0,.8-.3,2.1-.6,3.4l-.4,2.2h-1.9,0Z"/>
    <path class="st0" d="M110.9,81.7c.7-.1,1.5-.2,2.3-.2,1.2,0,2.2.2,2.9.8.7.6,1.2,1.4,1.2,2.7s-.7,2.9-1.7,3.7c-.9.7-2.1,1.1-4,1.1s-2,0-2.3-.2l1.5-7.8h0ZM111.8,88.1c.1,0,.3,0,.6,0,.8,0,1.6-.3,2-.9.5-.6.7-1.3.7-2.2s-.7-1.8-1.9-1.8-.4,0-.6,0l-.9,4.8h0Z"/>
    <path class="st0" d="M122.3,81.6l-.9,4.6c0,.2,0,.6,0,.9,0,.5.3,1,1,1s1.3-.5,1.6-1.9l.9-4.6h2.1l-.8,4.5c-.5,2.5-1.5,3.7-3.9,3.7-1.8,0-2.8-.9-2.8-2.7s0-.8.1-1.2l.8-4.4s2,0,2,0Z"/>
    <path class="st0" d="M128.2,87.5c.5.3,1.2.5,2,.5.6,0,1.1-.2,1.1-.7s-.4-.6-1.1-1c-.8-.4-1.7-1-1.7-2.2,0-1.7,1.5-2.7,3.4-2.7s1.6.2,2,.4l-.6,1.7c-.3-.1-.9-.4-1.6-.3-.7,0-1.1.3-1.1.6s.5.6,1.1,1c1,.5,1.6,1.2,1.6,2.1,0,2-1.7,2.8-3.4,2.8-1.3,0-2.1-.3-2.5-.6l.7-1.7h0Z"/>
    <polygon class="st0" points="137.7 83.4 135.7 83.4 136.1 81.6 142.2 81.6 141.8 83.4 139.8 83.4 138.6 89.7 136.6 89.7 137.7 83.4"/>
    <path class="st0" d="M144.1,81.8c.6-.1,1.4-.2,2.3-.2s1.6,0,2.2.4c.6.3,1,.8,1,1.7,0,1.2-.7,1.9-1.8,2.2h0c.4.3.6.8.7,1.5.1.8.2,2,.3,2.3h-2.1c0-.2-.2-.9-.2-1.9,0-.9-.4-1.2-1-1.2h-.4l-.6,3.1h-2l1.5-7.9h0ZM145.5,85.1h.6c.8,0,1.4-.5,1.4-1.2s-.5-.8-1.1-.8-.5,0-.6,0l-.4,1.9h0Z"/>
    <polygon class="st0" points="154.4 81.6 152.9 89.7 150.8 89.7 152.4 81.6 154.4 81.6"/>
    <polygon class="st0" points="160.9 86.4 158 86.4 157.7 87.9 160.9 87.9 160.6 89.7 155.3 89.7 156.9 81.6 161.9 81.6 161.6 83.3 158.6 83.3 158.3 84.7 161.2 84.7 160.9 86.4"/>
    <path class="st0" d="M163.2,87.5c.5.3,1.2.5,2,.5.6,0,1.1-.2,1.1-.7s-.4-.6-1.1-1c-.8-.4-1.7-1-1.7-2.2,0-1.7,1.5-2.7,3.4-2.7s1.6.2,2,.4l-.6,1.7c-.3-.1-.9-.4-1.6-.3-.7,0-1.1.3-1.1.6s.5.6,1.1,1c1,.5,1.6,1.2,1.6,2.1,0,2-1.7,2.8-3.4,2.8-1.3,0-2.1-.3-2.5-.6l.7-1.7h0Z"/>
  </g>
</svg>