<?xml version="1.0" encoding="UTF-8"?><svg id="Layer_2" xmlns="http://www.w3.org/2000/svg" viewBox="0 0 168.94 89.82"><defs><style>.cls-1{fill:#929497;}.cls-2{fill:#223f99;}</style></defs><g id="Layer_1-2"><path class="cls-2" d="m112.16.11l-2.64,13.93h16.38L128.53.11h-16.38Zm-12.33,64.92h16.38l8.56-45.03h-16.38l-8.56,45.03Z"/><path class="cls-2" d="m87.18,14.04c10.38,0,16.32,0,16.32,0L106.1.12s-6.25,0-17.19,0c-15.12,0-27.34,8-27.34,21.78,0,8.96,6.99,13.01,13.25,16.38,5.59,2.89,8.47,4.63,8.47,7.81,0,3.85-4.26,5.07-8.79,5.08-6.13.02-13.02-.02-13.02-.02L55.93,0h-19.85C16.57,18.14,2.83,47.38,0,77.44h16.38c1-9.56,3.05-18.81,6.05-27.63h23.52s1.55,15.24,1.55,15.24h26.91c14.35,0,26.38-5.89,26.38-21.69,0-7.7-4.73-12.23-12.63-16.27-4.91-2.79-9.25-4.82-9.25-7.9,0-2.79,2.39-5.15,8.26-5.15m-59.78,23.33c3.99-8.64,8.93-16.77,14.66-24.24l2.52,24.26-17.18-.02Z"/><path class="cls-2" d="m132.25,42.77l-2.38,12.61c-.17.73-.26,1.58-.26,2.57.03,1.35.89,2.74,2.87,2.74,2.24,0,3.63-1.49,4.36-5.25l2.38-12.67h5.64l-2.34,12.34c-1.29,6.8-4.09,10.26-10.73,10.26-4.98,0-7.79-2.51-7.79-7.33,0-.96.13-2.08.33-3.14l2.31-12.15h5.61Z"/><path class="cls-2" d="m148.85,42.77h5.54l-1.82,9.57h.1c.63-.96,1.29-1.75,1.91-2.57l5.45-7h7.03l-8.88,9.6,4.95,12.64h-6.14l-3.23-9.14-2.21,2.15-1.35,7h-5.54l4.19-22.25Z"/><path class="cls-1" d="m23.76,75.39l-.8,1.89h-2.2l3.84-8.08h2.68l.86,8.08h-2.16l-.1-1.89h-2.12Zm2.05-1.55l-.08-1.49c-.04-.46-.06-1.13-.11-1.63h-.02c-.2.5-.43,1.19-.64,1.64l-.62,1.48h1.48Z"/><path class="cls-1" d="m31.43,69.32c.73-.12,1.52-.18,2.34-.18,1.22,0,2.21.24,2.94.79.74.57,1.2,1.4,1.2,2.67,0,1.61-.68,2.91-1.68,3.68-.95.73-2.12,1.06-3.97,1.06-1.08,0-1.97-.1-2.32-.18l1.49-7.84Zm.86,6.33c.13.02.32.04.62.04.79,0,1.57-.31,2.04-.88.47-.58.72-1.31.72-2.21,0-1.21-.71-1.84-1.88-1.84-.28,0-.44.01-.58.04l-.92,4.85Z"/><path class="cls-1" d="m40.88,77.28l-1.01-8.08h2.11l.28,3.26c.08.88.14,1.8.2,2.77h.02c.35-.91.78-1.9,1.16-2.72l1.47-3.31h2.29l-4.14,8.08h-2.4Z"/><polygon class="cls-1" points="53.27 74.01 50.43 74.01 50.13 75.54 53.33 75.54 53 77.28 47.75 77.28 49.29 69.2 54.36 69.2 54.03 70.94 51 70.94 50.74 72.28 53.61 72.28 53.27 74.01"/><path class="cls-1" d="m55.18,77.28l1.52-8.08h2.43l.73,2.45c.31,1.07.55,2,.74,2.97h.04c.04-.88.17-1.85.38-3.06l.44-2.36h1.91l-1.52,8.08h-2.15l-.82-2.64c-.34-1.14-.57-1.94-.8-3.02h-.04c-.1.8-.31,2.09-.56,3.43l-.42,2.23h-1.89Z"/><polygon class="cls-1" points="66.99 70.99 64.96 70.99 65.31 69.2 71.45 69.2 71.1 70.99 69.04 70.99 67.85 77.28 65.81 77.28 66.99 70.99"/><polygon class="cls-1" points="75.4 69.2 73.87 77.28 71.83 77.28 73.36 69.2 75.4 69.2"/><path class="cls-1" d="m76.78,75.14c.49.28,1.21.5,1.99.5.56.01,1.08-.2,1.08-.68,0-.4-.36-.62-1.05-.98-.78-.42-1.7-1.04-1.7-2.16,0-1.72,1.5-2.73,3.38-2.73,1.07,0,1.64.2,2.03.38l-.62,1.72c-.28-.13-.88-.36-1.55-.34-.73,0-1.08.29-1.08.64,0,.38.54.64,1.15.98.98.5,1.63,1.16,1.63,2.12,0,1.97-1.67,2.82-3.45,2.82-1.26-.02-2.07-.31-2.47-.59l.67-1.68Z"/><polygon class="cls-1" points="86.32 70.99 84.29 70.99 84.64 69.2 90.78 69.2 90.43 70.99 88.37 70.99 87.18 77.28 85.14 77.28 86.32 70.99"/><polygon class="cls-1" points="94.67 73.47 94.4 74.87 91.18 74.87 91.46 73.47 94.67 73.47"/><polygon class="cls-1" points="98.25 69.2 100.29 69.2 99.1 75.5 102.15 75.5 101.81 77.28 96.71 77.28 98.25 69.2"/><path class="cls-1" d="m106.46,75.39l-.8,1.89h-2.2l3.84-8.08h2.68l.86,8.08h-2.16l-.1-1.89h-2.12Zm2.05-1.55l-.08-1.49c-.04-.46-.06-1.13-.11-1.63h-.02c-.2.5-.43,1.19-.64,1.64l-.62,1.48h1.48Z"/><path class="cls-1" d="m113.37,77.28l.62-3.26-1.6-4.82h2.2l.39,1.81c.13.66.22,1.05.3,1.51h.02c.26-.48.49-.92.8-1.51l1-1.81h2.45l-3.51,4.76-.62,3.32h-2.05Z"/><path class="cls-1" d="m126.39,77.28l.46-2.89c.14-.92.32-2,.57-3.33h-.02c-.49,1.15-1.01,2.33-1.45,3.24l-1.33,2.82h-1.6l-.16-2.81c-.05-.88-.11-2.06-.14-3.25h-.02c-.25,1.21-.49,2.42-.7,3.33l-.67,2.89h-1.87l2-8.08h2.76l.1,2.4c.04.79.12,1.78.11,2.81h.05c.36-1.03.83-2.07,1.16-2.82l1.07-2.39h2.8l-1.13,8.08h-1.98Z"/><polygon class="cls-1" points="136.18 74.01 133.33 74.01 133.03 75.54 136.24 75.54 135.9 77.28 130.66 77.28 132.2 69.2 137.27 69.2 136.93 70.94 133.91 70.94 133.65 72.28 136.51 72.28 136.18 74.01"/><path class="cls-1" d="m138.09,77.28l1.52-8.08h2.44l.73,2.45c.31,1.07.55,2,.74,2.97h.04c.04-.88.17-1.85.38-3.06l.44-2.36h1.91l-1.52,8.08h-2.15l-.81-2.64c-.34-1.14-.58-1.94-.81-3.02h-.03c-.1.8-.31,2.09-.57,3.43l-.42,2.23h-1.89Z"/><path class="cls-1" d="m151.1,68.98c-.59,1.25-1.23,2.36-2.02,3.42l-1.33.11c.58-1.16,1.03-2.28,1.37-3.42l1.98-.11Z"/><path class="cls-1" d="m152,75.14c.49.28,1.21.5,1.99.5.57.01,1.08-.2,1.08-.68,0-.4-.36-.62-1.05-.98-.78-.42-1.7-1.04-1.7-2.16,0-1.72,1.5-2.73,3.38-2.73,1.07,0,1.64.2,2.03.38l-.62,1.72c-.28-.13-.88-.36-1.55-.34-.73,0-1.08.29-1.08.64,0,.38.54.64,1.15.98.98.5,1.63,1.16,1.63,2.12,0,1.97-1.67,2.82-3.46,2.82-1.26-.02-2.07-.31-2.47-.59l.67-1.68Z"/><path class="cls-1" d="m21.73,87.54c.49.28,1.21.5,1.99.5.56.01,1.08-.2,1.08-.68,0-.4-.36-.62-1.05-.98-.78-.42-1.7-1.04-1.7-2.16,0-1.72,1.5-2.73,3.38-2.73,1.07,0,1.64.2,2.03.38l-.62,1.72c-.28-.13-.88-.36-1.55-.34-.73,0-1.08.29-1.08.64,0,.38.54.64,1.15.98.98.5,1.63,1.16,1.63,2.12,0,1.97-1.67,2.82-3.45,2.82-1.26-.02-2.07-.31-2.47-.59l.67-1.68Z"/><polygon class="cls-1" points="34.09 86.41 31.25 86.41 30.95 87.94 34.15 87.94 33.82 89.68 28.58 89.68 30.11 81.6 35.19 81.6 34.85 83.34 31.83 83.34 31.56 84.68 34.43 84.68 34.09 86.41"/><path class="cls-1" d="m37.53,81.76c.56-.13,1.45-.22,2.34-.22.74,0,1.58.07,2.21.42.58.3,1.02.84,1.02,1.68,0,1.2-.74,1.89-1.79,2.25v.05c.43.23.62.72.71,1.42.11.82.18,1.99.34,2.33h-2.1c-.07-.24-.16-.86-.25-1.9-.07-.92-.38-1.15-1.01-1.15h-.37l-.57,3.05h-2.03l1.51-7.93Zm1.38,3.36h.64c.8,0,1.43-.46,1.43-1.16,0-.55-.5-.8-1.09-.8-.29,0-.48.02-.6.05l-.37,1.92Z"/><path class="cls-1" d="m45.93,89.68l-1.01-8.08h2.11l.28,3.26c.08.88.14,1.8.2,2.77h.02c.35-.91.78-1.9,1.16-2.72l1.47-3.31h2.29l-4.14,8.08h-2.4Z"/><polygon class="cls-1" points="56.34 81.6 54.81 89.68 52.77 89.68 54.3 81.6 56.34 81.6"/><path class="cls-1" d="m63.54,89.47c-.41.19-1.14.34-2.14.34-2.19,0-3.71-1.31-3.71-3.45,0-1.96.9-3.33,2.18-4.11.84-.53,1.8-.76,2.93-.76.86,0,1.53.19,1.77.31l-.53,1.67c-.22-.08-.73-.23-1.41-.23-.64,0-1.21.17-1.66.5-.63.48-1.05,1.31-1.05,2.39,0,1.22.76,1.93,2.01,1.93.55,0,1.07-.08,1.45-.24l.15,1.65Z"/><polygon class="cls-1" points="70.9 86.41 68.06 86.41 67.76 87.94 70.96 87.94 70.62 89.68 65.38 89.68 66.92 81.6 71.99 81.6 71.65 83.34 68.63 83.34 68.37 84.68 71.23 84.68 70.9 86.41"/><path class="cls-1" d="m73.25,87.54c.49.28,1.21.5,1.99.5.56.01,1.08-.2,1.08-.68,0-.4-.36-.62-1.05-.98-.78-.42-1.7-1.04-1.7-2.16,0-1.72,1.5-2.73,3.38-2.73,1.07,0,1.64.2,2.03.38l-.62,1.72c-.28-.13-.88-.36-1.55-.34-.73,0-1.08.29-1.08.64,0,.38.54.64,1.15.98.98.5,1.63,1.16,1.63,2.12,0,1.97-1.67,2.82-3.45,2.82-1.26-.02-2.07-.31-2.47-.59l.67-1.68Z"/><path class="cls-1" d="m88.43,89.68c-.14-.16-.26-.31-.38-.47-.44.29-1.1.6-2.14.6-1.52,0-2.61-.8-2.61-2.18,0-1.21.86-1.96,1.92-2.45v-.04c-.22-.37-.42-.82-.42-1.32,0-1.36,1.09-2.36,2.7-2.36,1.26,0,2.23.72,2.23,1.89,0,.92-.72,1.58-1.98,2.18v.02c.26.41.65.88.92,1.26.52-.59.85-1.31,1.07-1.91h1.86c-.42,1.21-1,2.28-2,3.18.33.48.78,1.04,1.25,1.58h-2.41Zm-1.92-1.39c.34,0,.55-.12.73-.24-.43-.52-.92-1.17-1.33-1.79-.27.24-.54.56-.54,1.01,0,.55.37,1.02,1.13,1.02h.01Zm.79-5.52c-.4,0-.7.37-.7.85,0,.35.14.64.35.88.47-.2.96-.6.96-1.13,0-.34-.19-.6-.6-.6h-.01Z"/><polygon class="cls-1" points="99.36 81.6 97.83 89.68 95.79 89.68 97.33 81.6 99.36 81.6"/><path class="cls-1" d="m100.3,89.68l1.52-8.08h2.43l.73,2.45c.31,1.07.55,2,.74,2.97h.04c.04-.88.17-1.85.38-3.06l.44-2.36h1.91l-1.52,8.08h-2.15l-.82-2.64c-.34-1.14-.58-1.94-.8-3.02h-.04c-.1.8-.31,2.09-.56,3.43l-.42,2.23h-1.89Z"/><path class="cls-1" d="m110.94,81.72c.73-.12,1.52-.18,2.34-.18,1.22,0,2.21.24,2.94.79.74.58,1.2,1.4,1.2,2.67,0,1.61-.68,2.91-1.68,3.68-.95.73-2.12,1.05-3.97,1.05-1.08,0-1.97-.1-2.32-.18l1.49-7.84Zm.86,6.33c.13.02.32.04.62.04.79,0,1.57-.31,2.04-.88.47-.58.72-1.31.72-2.21,0-1.21-.71-1.84-1.88-1.84-.28,0-.44.01-.58.04l-.92,4.84Z"/><path class="cls-1" d="m122.27,81.6l-.88,4.59c-.05.25-.08.58-.08.94.01.49.32.98,1.03.98.83,0,1.33-.54,1.58-1.91l.88-4.61h2.05l-.85,4.5c-.47,2.46-1.49,3.72-3.9,3.72-1.81.01-2.83-.91-2.83-2.65,0-.35.05-.76.12-1.15l.84-4.41h2.04Z"/><path class="cls-1" d="m128.19,87.54c.49.28,1.21.5,1.99.5.56.01,1.08-.2,1.08-.68,0-.4-.36-.62-1.05-.98-.78-.42-1.7-1.04-1.7-2.16,0-1.72,1.5-2.73,3.38-2.73,1.07,0,1.64.2,2.03.38l-.62,1.72c-.28-.13-.88-.36-1.55-.34-.73,0-1.08.29-1.08.64,0,.38.54.64,1.15.98.98.5,1.63,1.16,1.63,2.12,0,1.97-1.67,2.82-3.45,2.82-1.26-.02-2.08-.31-2.47-.59l.67-1.68Z"/><polygon class="cls-1" points="137.73 83.39 135.7 83.39 136.05 81.6 142.19 81.6 141.84 83.39 139.78 83.39 138.59 89.68 136.55 89.68 137.73 83.39"/><path class="cls-1" d="m144.14,81.76c.56-.13,1.45-.22,2.34-.22.74,0,1.58.07,2.21.42.58.3,1.02.84,1.02,1.68,0,1.2-.74,1.89-1.79,2.25v.05c.43.23.62.72.71,1.42.11.82.18,1.99.34,2.33h-2.1c-.07-.24-.16-.86-.25-1.9-.07-.92-.39-1.15-1.01-1.15h-.37l-.57,3.05h-2.03l1.51-7.93Zm1.38,3.36h.63c.8,0,1.43-.46,1.43-1.16,0-.55-.5-.8-1.09-.8-.29,0-.48.02-.6.05l-.37,1.92Z"/><polygon class="cls-1" points="154.42 81.6 152.88 89.68 150.84 89.68 152.38 81.6 154.42 81.6"/><polygon class="cls-1" points="160.86 86.41 158.02 86.41 157.72 87.94 160.92 87.94 160.59 89.68 155.34 89.68 156.88 81.6 161.95 81.6 161.62 83.34 158.59 83.34 158.33 84.68 161.2 84.68 160.86 86.41"/><path class="cls-1" d="m163.22,87.54c.49.28,1.21.5,1.99.5.56.01,1.08-.2,1.08-.68,0-.4-.36-.62-1.05-.98-.78-.42-1.7-1.04-1.7-2.16,0-1.72,1.5-2.73,3.38-2.73,1.07,0,1.64.2,2.03.38l-.62,1.72c-.28-.13-.88-.36-1.55-.34-.73,0-1.08.29-1.08.64,0,.38.54.64,1.15.98.98.5,1.63,1.16,1.63,2.12,0,1.97-1.67,2.82-3.45,2.82-1.26-.02-2.08-.31-2.47-.59l.67-1.68Z"/></g></svg>